<?xml version="1.0" encoding="utf-8"?>
<!-- Generator: Adobe Illustrator 24.3.0, SVG Export Plug-In . SVG Version: 6.00 Build 0)  -->
<svg version="1.1" id="Слой_1" xmlns="http://www.w3.org/2000/svg" xmlns:xlink="http://www.w3.org/1999/xlink" x="0px" y="0px"
	 viewBox="0 0 993.3 210" style="enable-background:new 0 0 993.3 210;" xml:space="preserve">
<style type="text/css">
	.st0{fill:#FF3939;}
	.st1{fill:#FFFFFF;}
	.st2{fill:#3030FC;}
	.st3{fill:#1E395C;}
</style>
<g>
	<rect x="732.8" y="140" class="st0" width="260.5" height="70"/>
</g>
<g>
	<rect x="732.8" class="st1" width="260.5" height="70"/>
</g>
<g>
	<rect x="732.8" y="70" class="st2" width="260.5" height="70"/>
</g>
<g>
	<g>
		<path class="st3" d="M86.9,124.5c0,0.3-0.1,0.6-0.3,0.8c-0.2,0.2-0.5,0.4-0.9,0.6s-1,0.3-1.8,0.3s-1.7,0.1-2.8,0.1s-2,0-2.8-0.1
			s-1.3-0.2-1.8-0.3s-0.8-0.3-0.9-0.6s-0.3-0.5-0.3-0.8V78.8H54.2v45.8c0,0.3-0.1,0.6-0.3,0.8c-0.2,0.2-0.5,0.4-0.9,0.6
			s-1,0.3-1.8,0.3s-1.7,0.1-2.8,0.1c-1.1,0-2,0-2.8-0.1s-1.3-0.2-1.8-0.3s-0.8-0.3-0.9-0.6c-0.2-0.2-0.3-0.5-0.3-0.8V72.8
			c0-1.2,0.3-2.2,0.9-2.8c0.6-0.6,1.4-0.9,2.5-0.9h37.6c1.1,0,1.9,0.3,2.5,0.9s0.9,1.5,0.9,2.8C86.9,72.8,86.9,124.5,86.9,124.5z"/>
	</g>
	<g>
		<path class="st3" d="M134.9,103.8c0,1.3-0.3,2.3-0.9,3c-0.6,0.6-1.4,1-2.5,1h-23.9c0,1.7,0.2,3.2,0.6,4.6c0.4,1.4,1,2.5,1.9,3.5
			c0.9,0.9,2,1.7,3.3,2.2s3,0.8,4.9,0.8c1.9,0,3.6-0.1,5.1-0.4c1.5-0.3,2.7-0.6,3.8-0.9c1.1-0.3,2-0.6,2.7-0.9s1.3-0.4,1.7-0.4
			c0.3,0,0.5,0.1,0.7,0.2s0.3,0.3,0.4,0.6s0.2,0.6,0.2,1.1c0,0.5,0.1,1.1,0.1,1.8c0,0.6,0,1.2,0,1.7c0,0.5-0.1,0.8-0.1,1.2
			c-0.1,0.3-0.1,0.6-0.3,0.8c-0.1,0.2-0.3,0.4-0.5,0.6s-0.7,0.5-1.6,0.8c-0.9,0.3-1.9,0.7-3.2,1c-1.3,0.3-2.8,0.6-4.5,0.9
			s-3.5,0.4-5.4,0.4c-3.5,0-6.5-0.4-9.2-1.3s-4.8-2.2-6.6-4s-3.1-4-3.9-6.8c-0.9-2.7-1.3-5.9-1.3-9.6c0-3.5,0.4-6.6,1.4-9.4
			s2.2-5.2,4-7.1c1.7-1.9,3.8-3.4,6.3-4.5c2.5-1,5.3-1.5,8.4-1.5c3.3,0,6.1,0.5,8.4,1.4s4.2,2.3,5.7,4c1.5,1.7,2.6,3.7,3.3,6.1
			s1.1,4.9,1.1,7.7L134.9,103.8L134.9,103.8z M124.2,100.6c0.1-3.1-0.5-5.5-1.9-7.3c-1.3-1.8-3.4-2.7-6.2-2.7
			c-1.4,0-2.6,0.3-3.7,0.8s-1.9,1.2-2.6,2.1c-0.7,0.9-1.2,1.9-1.6,3.2c-0.4,1.2-0.6,2.5-0.6,3.9L124.2,100.6L124.2,100.6z"/>
	</g>
	<g>
		<path class="st3" d="M183.4,104.3c0,3.5-0.4,6.6-1.1,9.4s-1.8,5.2-3.3,7.1c-1.4,2-3.2,3.5-5.4,4.5c-2.1,1.1-4.6,1.6-7.3,1.6
			c-1.1,0-2.2-0.1-3.1-0.3s-1.9-0.6-2.8-1c-0.9-0.4-1.8-1-2.7-1.7s-1.8-1.5-2.7-2.4v18.5c0,0.3-0.1,0.6-0.3,0.8s-0.5,0.4-0.9,0.6
			s-1,0.3-1.7,0.4s-1.6,0.1-2.7,0.1c-1.1,0-2,0-2.7-0.1s-1.3-0.2-1.7-0.4c-0.4-0.2-0.7-0.4-0.9-0.6s-0.3-0.5-0.3-0.8V85.3
			c0-0.3,0.1-0.6,0.2-0.8c0.1-0.2,0.4-0.4,0.8-0.6c0.4-0.2,0.9-0.3,1.4-0.3c0.6-0.1,1.4-0.1,2.3-0.1c0.9,0,1.6,0,2.2,0.1
			s1.1,0.2,1.4,0.3s0.6,0.3,0.8,0.6c0.1,0.2,0.2,0.5,0.2,0.8v4.6c1.1-1.2,2.3-2.2,3.4-3.1c1.1-0.9,2.2-1.6,3.4-2.2s2.3-1.1,3.5-1.3
			c1.2-0.3,2.5-0.4,3.9-0.4c2.9,0,5.3,0.6,7.3,1.7s3.7,2.7,4.9,4.6s2.2,4.2,2.8,6.9C183.1,98.6,183.4,101.4,183.4,104.3z
			 M171.9,105.1c0-1.7-0.1-3.3-0.4-4.8s-0.7-2.9-1.3-4.1s-1.4-2.2-2.4-2.9c-1-0.7-2.2-1.1-3.7-1.1c-0.7,0-1.5,0.1-2.2,0.3
			c-0.7,0.2-1.4,0.6-2.2,1.1s-1.5,1.1-2.3,1.9s-1.6,1.8-2.5,2.9v12.9c1.6,2,3,3.5,4.4,4.6s2.9,1.6,4.4,1.6c1.4,0,2.7-0.4,3.7-1.1
			s1.8-1.7,2.5-2.9c0.6-1.2,1.1-2.5,1.4-4S171.9,106.6,171.9,105.1z"/>
	</g>
	<g>
		<path class="st3" d="M228.3,113c0,2.3-0.4,4.2-1.2,5.9s-2.1,3.1-3.8,4.2s-3.8,2-6.4,2.6s-5.6,0.9-9,0.9c-1.1,0-2.2,0-3.2,0
			c-1,0-1.9,0-2.9-0.1s-1.9-0.1-2.8-0.1s-1.9-0.2-3-0.3c-1.4-0.1-2.4-0.5-2.9-1.2c-0.6-0.7-0.9-1.8-0.9-3.2V87.9
			c0-1.3,0.3-2.4,0.8-3.1c0.6-0.7,1.4-1.1,2.6-1.2c0.7-0.1,1.6-0.1,2.5-0.2c0.9-0.1,2-0.1,3.1-0.2c1.1,0,2.3-0.1,3.5-0.1
			s2.4,0,3.6,0c3.1,0,5.8,0.2,8.1,0.7s4.1,1.1,5.6,2c1.5,0.9,2.6,2,3.3,3.3s1.1,2.8,1.1,4.6c0,2.4-0.6,4.3-1.9,5.9s-3.1,2.7-5.5,3.2
			c3,0.5,5.2,1.7,6.8,3.4C227.5,108,228.3,110.2,228.3,113z M216.2,95.7c0-0.8-0.1-1.5-0.4-2.1s-0.7-1.1-1.3-1.6
			c-0.6-0.4-1.4-0.8-2.4-1c-1-0.2-2.2-0.3-3.7-0.3c-1.1,0-2.2,0-3.1,0.1s-1.8,0.1-2.6,0.2v9.9h5.9c2.5,0,4.4-0.4,5.7-1.3
			C215.5,98.7,216.2,97.4,216.2,95.7z M217.3,112.9c0-0.9-0.1-1.8-0.5-2.5s-0.8-1.3-1.5-1.8c-0.7-0.5-1.7-0.8-2.8-1
			c-1.2-0.2-2.5-0.3-4.1-0.3h-5.8v11.2c0.5,0.1,1,0.1,1.5,0.2s1,0.1,1.6,0.1s1.1,0.1,1.6,0.1c0.5,0,1,0,1.4,0c1.6,0,2.9-0.1,4-0.4
			s2-0.7,2.7-1.2s1.2-1.2,1.5-1.9C217.2,114.7,217.3,113.9,217.3,112.9z"/>
	</g>
	<g>
		<path class="st3" d="M247.9,97.4c1-0.1,2-0.2,3-0.2c1-0.1,2.2-0.1,3.4-0.1c3.2,0,6,0.3,8.4,1c2.3,0.7,4.3,1.6,5.8,2.8
			s2.7,2.7,3.4,4.5s1.1,3.7,1.1,6c0,2.3-0.4,4.4-1.2,6.3s-2.1,3.6-3.8,4.9c-1.7,1.4-3.9,2.4-6.5,3.2c-2.6,0.8-5.8,1.1-9.4,1.1
			c-1,0-1.9,0-2.9,0c-1,0-2,0-2.9-0.1c-0.9,0-1.9-0.1-2.8-0.2c-0.9-0.1-1.8-0.1-2.6-0.2c-1.4-0.2-2.4-0.6-3.1-1.3s-0.9-1.8-0.9-3.2
			V85.3c0-0.3,0.1-0.6,0.3-0.8c0.2-0.2,0.5-0.4,0.9-0.6s0.9-0.3,1.6-0.3c0.7-0.1,1.5-0.1,2.5-0.1c2.1,0,3.6,0.2,4.5,0.4
			s1.3,0.7,1.3,1.3L247.9,97.4L247.9,97.4z M261.7,111.9c0-1-0.1-1.9-0.5-2.8s-0.8-1.5-1.5-2.1c-0.7-0.6-1.6-1-2.7-1.3
			c-1.1-0.3-2.5-0.4-4.1-0.4c-1,0-1.9,0-2.8,0.1c-0.8,0-1.6,0.1-2.4,0.2v12.7c0.9,0.1,1.7,0.2,2.5,0.2s1.8,0.1,2.9,0.1
			c2.9,0,5.1-0.6,6.4-1.8S261.7,114,261.7,111.9z M289.8,124.5c0,0.3-0.1,0.6-0.3,0.8c-0.2,0.2-0.5,0.4-0.9,0.6s-1,0.3-1.7,0.3
			s-1.6,0.1-2.7,0.1c-1,0-1.9,0-2.6-0.1c-0.7-0.1-1.3-0.2-1.7-0.3s-0.7-0.3-0.9-0.6c-0.2-0.2-0.3-0.5-0.3-0.8V85.3
			c0-0.3,0.1-0.6,0.3-0.8c0.2-0.2,0.5-0.4,0.9-0.6c0.4-0.2,1-0.3,1.7-0.3s1.6-0.1,2.6-0.1c1.1,0,2,0,2.7,0.1s1.3,0.2,1.7,0.3
			s0.7,0.3,0.9,0.6s0.3,0.5,0.3,0.8V124.5z"/>
	</g>
	<g>
		<path class="st3" d="M337.1,103.8c0,1.3-0.3,2.3-0.9,3c-0.6,0.6-1.4,1-2.5,1h-23.9c0,1.7,0.2,3.2,0.6,4.6c0.4,1.4,1,2.5,1.9,3.5
			c0.9,0.9,2,1.7,3.3,2.2s3,0.8,4.9,0.8c1.9,0,3.6-0.1,5.1-0.4c1.5-0.3,2.7-0.6,3.8-0.9c1.1-0.3,2-0.6,2.7-0.9s1.3-0.4,1.7-0.4
			c0.3,0,0.5,0.1,0.7,0.2s0.3,0.3,0.4,0.6s0.2,0.6,0.2,1.1c0,0.5,0.1,1.1,0.1,1.8c0,0.6,0,1.2,0,1.7c0,0.5-0.1,0.8-0.1,1.2
			c-0.1,0.3-0.1,0.6-0.3,0.8c-0.1,0.2-0.3,0.4-0.5,0.6s-0.7,0.5-1.6,0.8s-1.9,0.7-3.2,1c-1.3,0.3-2.8,0.6-4.5,0.9s-3.5,0.4-5.5,0.4
			c-3.5,0-6.5-0.4-9.2-1.3s-4.8-2.2-6.6-4s-3.1-4-3.9-6.8c-0.9-2.7-1.3-5.9-1.3-9.6c0-3.5,0.5-6.6,1.4-9.4c0.9-2.8,2.2-5.2,4-7.1
			c1.7-1.9,3.8-3.4,6.3-4.5c2.5-1,5.3-1.5,8.4-1.5c3.3,0,6.1,0.5,8.4,1.4s4.2,2.3,5.7,4c1.5,1.7,2.6,3.7,3.3,6.1s1,4.9,1,7.7
			L337.1,103.8L337.1,103.8z M326.4,100.6c0.1-3.1-0.5-5.5-1.9-7.3c-1.3-1.8-3.4-2.7-6.2-2.7c-1.4,0-2.6,0.3-3.7,0.8
			s-1.9,1.2-2.6,2.1s-1.2,1.9-1.6,3.2c-0.4,1.2-0.6,2.5-0.6,3.9L326.4,100.6L326.4,100.6z"/>
	</g>
	<g>
		<path class="st3" d="M402.5,113c0,2.3-0.4,4.2-1.2,5.9s-2.1,3.1-3.8,4.2c-1.7,1.1-3.8,2-6.4,2.6s-5.5,0.9-9,0.9
			c-1.1,0-2.2,0-3.2,0c-1,0-1.9,0-2.9-0.1s-1.9-0.1-2.8-0.1s-1.9-0.2-3-0.3c-1.4-0.1-2.4-0.5-2.9-1.2c-0.6-0.7-0.9-1.8-0.9-3.2V87.9
			c0-1.3,0.3-2.4,0.8-3.1c0.6-0.7,1.4-1.1,2.5-1.2c0.7-0.1,1.6-0.1,2.5-0.2c1-0.1,2-0.1,3.1-0.2c1.1,0,2.3-0.1,3.5-0.1s2.4,0,3.6,0
			c3.1,0,5.8,0.2,8.1,0.7s4.1,1.1,5.6,2c1.5,0.9,2.6,2,3.3,3.3s1.1,2.8,1.1,4.6c0,2.4-0.6,4.3-1.9,5.9s-3.1,2.7-5.5,3.2
			c3,0.5,5.2,1.7,6.8,3.4C401.8,108,402.5,110.2,402.5,113z M390.4,95.7c0-0.8-0.1-1.5-0.4-2.1s-0.7-1.1-1.3-1.6
			c-0.6-0.4-1.4-0.8-2.4-1s-2.2-0.3-3.7-0.3c-1.1,0-2.2,0-3.1,0.1s-1.8,0.1-2.6,0.2v9.9h5.9c2.5,0,4.4-0.4,5.7-1.3
			C389.8,98.7,390.4,97.4,390.4,95.7z M391.6,112.9c0-0.9-0.1-1.8-0.5-2.5s-0.8-1.3-1.5-1.8s-1.7-0.8-2.8-1
			c-1.2-0.2-2.5-0.3-4.1-0.3h-5.8v11.2c0.5,0.1,1,0.1,1.5,0.2s1,0.1,1.6,0.1s1,0.1,1.6,0.1c0.5,0,1,0,1.4,0c1.5,0,2.9-0.1,4-0.4
			s2-0.7,2.7-1.2s1.2-1.2,1.5-1.9C391.4,114.7,391.6,113.9,391.6,112.9z"/>
	</g>
	<g>
		<path class="st3" d="M471,86.4c0,3.2-0.5,6-1.5,8.5c-1,2.5-2.5,4.5-4.4,6.2c-1.9,1.7-4.2,3-7,3.8s-6,1.3-9.8,1.3h-4.8v18.2
			c0,0.3-0.1,0.6-0.3,0.8s-0.5,0.4-0.9,0.6s-1,0.3-1.8,0.3s-1.7,0.1-2.8,0.1c-1.1,0-2,0-2.8-0.1s-1.3-0.2-1.8-0.3s-0.8-0.3-0.9-0.6
			s-0.3-0.5-0.3-0.8V73.3c0-1.4,0.4-2.4,1.1-3.1c0.7-0.7,1.7-1,2.8-1h13.4c1.4,0,2.6,0.1,3.9,0.2s2.7,0.3,4.4,0.7
			c1.7,0.3,3.4,1,5.2,1.9s3.2,2.1,4.5,3.4s2.2,3,2.8,4.9C470.6,82,471,84.1,471,86.4z M458.9,87.2c0-2-0.4-3.6-1-4.9
			s-1.6-2.2-2.6-2.9c-1-0.6-2.1-1-3.2-1.2c-1.1-0.2-2.3-0.2-3.5-0.2h-4.9v19.3h5.2c1.9,0,3.4-0.2,4.6-0.8s2.3-1.2,3-2.1
			s1.4-2,1.8-3.2C458.7,90.1,458.9,88.7,458.9,87.2z"/>
	</g>
	<g>
		<path class="st3" d="M518.1,104.5c0,3.3-0.4,6.4-1.3,9.1s-2.2,5.1-4,7.1c-1.8,2-4,3.5-6.7,4.6c-2.7,1.1-5.8,1.6-9.5,1.6
			c-3.5,0-6.5-0.5-9.1-1.4c-2.6-1-4.7-2.4-6.4-4.2s-3-4.1-3.8-6.8c-0.8-2.7-1.2-5.8-1.2-9.2c0-3.3,0.5-6.4,1.3-9.2
			c0.9-2.8,2.2-5.1,4-7.1c1.8-2,4-3.5,6.7-4.6s5.8-1.6,9.4-1.6c3.5,0,6.6,0.5,9.1,1.4c2.6,0.9,4.7,2.3,6.4,4.2s2.9,4.1,3.8,6.8
			C517.7,97.9,518.1,101,518.1,104.5z M506.8,105c0-1.9-0.1-3.7-0.5-5.3c-0.3-1.6-0.8-3-1.6-4.2s-1.7-2.1-2.9-2.8s-2.8-1-4.6-1
			c-1.6,0-3.1,0.3-4.3,0.9s-2.2,1.5-3,2.6c-0.8,1.2-1.4,2.6-1.8,4.2c-0.4,1.6-0.6,3.5-0.6,5.6c0,1.9,0.2,3.7,0.5,5.3
			c0.3,1.6,0.8,3,1.6,4.2s1.7,2.1,2.9,2.8s2.8,1,4.6,1c1.7,0,3.1-0.3,4.4-0.9s2.2-1.5,3-2.6s1.4-2.5,1.8-4.2
			C506.6,108.9,506.8,107,506.8,105z"/>
	</g>
	<g>
		<path class="st3" d="M556.5,118.3c0,0.8,0,1.4-0.1,1.9s-0.1,0.9-0.2,1.3s-0.2,0.6-0.3,0.9c-0.1,0.2-0.3,0.5-0.7,0.8
			s-1,0.8-1.8,1.2s-1.8,0.9-2.9,1.3c-1.1,0.4-2.3,0.7-3.5,0.9s-2.6,0.3-3.9,0.3c-3,0-5.7-0.5-8-1.4s-4.3-2.3-5.9-4.2
			s-2.8-4.1-3.6-6.7s-1.2-5.7-1.2-9.1c0-3.9,0.5-7.3,1.5-10.2c1-2.9,2.3-5.2,4.1-7.1s3.8-3.3,6.2-4.2c2.4-0.9,5-1.4,7.9-1.4
			c1.2,0,2.3,0.1,3.5,0.3s2.2,0.5,3.2,0.8s1.9,0.8,2.6,1.2s1.3,0.8,1.7,1.1s0.5,0.6,0.7,0.8s0.2,0.5,0.3,0.9s0.1,0.8,0.2,1.3
			c0,0.5,0.1,1.1,0.1,1.9c0,1.7-0.2,2.9-0.4,3.6s-0.7,1-1.1,1c-0.5,0-1-0.2-1.6-0.6c-0.6-0.4-1.2-0.9-2-1.4s-1.7-0.9-2.7-1.4
			s-2.3-0.6-3.8-0.6c-2.9,0-5.1,1.1-6.6,3.3s-2.3,5.5-2.3,9.7c0,2.1,0.2,4,0.6,5.6s0.9,3,1.7,4s1.7,1.9,2.8,2.4s2.4,0.8,3.9,0.8
			c1.5,0,2.8-0.2,3.9-0.7s2.1-1,2.9-1.5s1.5-1.1,2.1-1.5c0.6-0.4,1-0.7,1.4-0.7c0.3,0,0.5,0.1,0.7,0.2s0.3,0.4,0.4,0.8
			c0.1,0.4,0.2,0.9,0.2,1.5C556.5,116.5,556.5,117.3,556.5,118.3z"/>
	</g>
	<g>
		<path class="st3" d="M593.7,118.3c0,0.8,0,1.4-0.1,1.9s-0.1,0.9-0.2,1.3s-0.2,0.6-0.3,0.9c-0.1,0.2-0.3,0.5-0.7,0.8
			s-1,0.8-1.8,1.2s-1.8,0.9-2.9,1.3c-1.1,0.4-2.3,0.7-3.5,0.9s-2.6,0.3-3.9,0.3c-3,0-5.7-0.5-8-1.4s-4.3-2.3-5.9-4.2
			s-2.8-4.1-3.6-6.7s-1.2-5.7-1.2-9.1c0-3.9,0.5-7.3,1.5-10.2c1-2.9,2.3-5.2,4.1-7.1s3.8-3.3,6.2-4.2c2.4-0.9,5-1.4,7.9-1.4
			c1.2,0,2.3,0.1,3.5,0.3s2.2,0.5,3.2,0.8s1.9,0.8,2.6,1.2s1.3,0.8,1.7,1.1s0.5,0.6,0.7,0.8s0.2,0.5,0.3,0.9s0.1,0.8,0.2,1.3
			c0,0.5,0.1,1.1,0.1,1.9c0,1.7-0.2,2.9-0.4,3.6s-0.7,1-1.1,1c-0.5,0-1-0.2-1.6-0.6c-0.6-0.4-1.2-0.9-2-1.4s-1.7-0.9-2.7-1.4
			s-2.3-0.6-3.8-0.6c-2.9,0-5.1,1.1-6.6,3.3s-2.3,5.5-2.3,9.7c0,2.1,0.2,4,0.6,5.6s0.9,3,1.7,4s1.7,1.9,2.8,2.4s2.4,0.8,3.9,0.8
			c1.5,0,2.8-0.2,3.9-0.7s2.1-1,2.9-1.5s1.5-1.1,2.1-1.5c0.6-0.4,1-0.7,1.4-0.7c0.3,0,0.5,0.1,0.7,0.2s0.3,0.4,0.4,0.8
			c0.1,0.4,0.2,0.9,0.2,1.5C593.6,116.5,593.7,117.3,593.7,118.3z"/>
	</g>
	<g>
		<path class="st3" d="M640.7,124.6c0,0.3-0.1,0.5-0.2,0.8s-0.5,0.4-0.9,0.5c-0.4,0.1-1,0.2-1.7,0.3s-1.6,0.1-2.6,0.1
			s-1.9,0-2.7-0.1s-1.3-0.2-1.8-0.3c-0.5-0.1-0.8-0.3-1-0.5s-0.3-0.4-0.3-0.8v-17.5c0-1.2,0-2.5,0.1-3.8s0.2-2.6,0.3-3.9
			c-0.7,1.2-1.5,2.4-2.3,3.6c-0.8,1.2-1.7,2.4-2.5,3.5l-13.2,18c-0.3,0.3-0.5,0.6-0.8,0.8s-0.5,0.4-0.9,0.5
			c-0.4,0.1-0.8,0.2-1.4,0.3c-0.6,0-1.3,0.1-2.2,0.1c-1,0-1.9,0-2.6-0.1s-1.2-0.2-1.6-0.3c-0.4-0.1-0.7-0.3-0.8-0.5
			c-0.2-0.2-0.2-0.5-0.2-0.8V85.3c0-0.3,0.1-0.5,0.2-0.7c0.2-0.2,0.5-0.4,0.9-0.6s1-0.3,1.7-0.3s1.6-0.1,2.6-0.1
			c2.1,0,3.5,0.2,4.4,0.4c0.8,0.3,1.3,0.7,1.3,1.3v17.4c0,1.2,0,2.4-0.1,3.7s-0.2,2.5-0.3,3.7c0.7-1.2,1.4-2.3,2.2-3.5
			c0.7-1.2,1.5-2.3,2.3-3.4l13.4-18c0.2-0.3,0.5-0.6,0.8-0.8c0.3-0.2,0.6-0.4,1-0.5c0.4-0.1,0.9-0.2,1.5-0.3s1.3-0.1,2.2-0.1
			c1,0,1.9,0,2.5,0.1c0.7,0.1,1.2,0.2,1.6,0.3s0.7,0.3,0.8,0.6c0.2,0.2,0.2,0.5,0.2,0.8V124.6z"/>
	</g>
	<g>
		<path class="st3" d="M690.8,124.6c0,0.3-0.1,0.5-0.2,0.8s-0.5,0.4-0.9,0.5c-0.4,0.1-1,0.2-1.7,0.3s-1.6,0.1-2.6,0.1
			s-1.9,0-2.7-0.1s-1.3-0.2-1.8-0.3c-0.5-0.1-0.8-0.3-1-0.5c-0.2-0.2-0.3-0.4-0.3-0.8v-17.5c0-1.2,0-2.5,0.1-3.8s0.2-2.6,0.3-3.9
			c-0.7,1.2-1.5,2.4-2.3,3.6c-0.8,1.2-1.7,2.4-2.5,3.5l-13.2,18c-0.3,0.3-0.5,0.6-0.8,0.8c-0.2,0.2-0.5,0.4-0.9,0.5
			c-0.4,0.1-0.8,0.2-1.4,0.3c-0.6,0-1.3,0.1-2.2,0.1c-1,0-1.9,0-2.6-0.1c-0.7-0.1-1.2-0.2-1.6-0.3c-0.4-0.1-0.7-0.3-0.8-0.5
			c-0.2-0.2-0.2-0.5-0.2-0.8V85.3c0-0.3,0.1-0.5,0.2-0.7c0.2-0.2,0.5-0.4,0.9-0.6s1-0.3,1.7-0.3s1.6-0.1,2.6-0.1
			c2.1,0,3.5,0.2,4.4,0.4s1.3,0.7,1.3,1.3v17.4c0,1.2,0,2.4-0.1,3.7s-0.2,2.5-0.3,3.7c0.7-1.2,1.4-2.3,2.2-3.5s1.5-2.3,2.3-3.4
			l13.4-18c0.2-0.3,0.5-0.6,0.8-0.8c0.3-0.2,0.6-0.4,1-0.5c0.4-0.1,0.9-0.2,1.5-0.3s1.3-0.1,2.2-0.1c1,0,1.9,0,2.5,0.1
			s1.2,0.2,1.6,0.3c0.4,0.2,0.7,0.3,0.8,0.6s0.2,0.5,0.2,0.8L690.8,124.6L690.8,124.6z"/>
	</g>
</g>
<path class="st3" d="M-5-5v220H998.3V-5H-5z M5,5h722.8v200H5V5z M988.3,205H737.8V5h250.5V205z"/>
<rect x="349.2" y="-122.2" class="st2" width="186" height="84"/>
</svg>
