<?xml version="1.0" encoding="utf-8"?>
<!-- Generator: Adobe Illustrator 24.3.0, SVG Export Plug-In . SVG Version: 6.00 Build 0)  -->
<svg version="1.1" id="Слой_1" xmlns="http://www.w3.org/2000/svg" xmlns:xlink="http://www.w3.org/1999/xlink" x="0px" y="0px"
	 viewBox="0 0 680.4 212.4" style="enable-background:new 0 0 680.4 212.4;" xml:space="preserve">
<style type="text/css">
	.st0{fill:#FFFFFF;}
</style>
<path class="st0" d="M0.2,16.6v179.1c0,9.2,7.5,16.6,16.6,16.6h646.7c9.2,0,16.7-7.5,16.7-16.6V16.6c0-9.2-7.5-16.6-16.7-16.6H16.9
	C7.7,0,0.2,7.5,0.2,16.6z M644.4,195.4H36c-9.2,0-16.7-7.5-16.7-16.6V33.7C19.4,24.5,26.8,17,36,17h608.4c9.2,0,16.7,7.5,16.7,16.7
	v145.1C661,187.9,653.6,195.4,644.4,195.4z"/>
<g>
	<path class="st0" d="M264.5,71.1c-1.3-1.3-2.8-2-4.4-2s-3.2,0.7-4.4,2c-1.3,1.3-2.3,3.2-3,5.6c-0.7,2.4-1,5.2-1,8.3v26.5
		c0,3.2,0.4,5.9,1,8.3c0.7,2.4,1.7,4.3,3,5.6c1.3,1.3,2.8,2,4.4,2s3.2-0.7,4.4-2c1.3-1.3,2.3-3.2,3-5.6s1-5.2,1-8.3V85
		c0-3.2-0.4-5.9-1-8.3C266.7,74.2,265.8,72.4,264.5,71.1z"/>
	<path class="st0" d="M348.8,104.6c0,7.5-0.5,13.9-1.7,19.1c-0.2,1.2-0.5,2.3-0.9,3.4h16.1V69.4h-13.6L348.8,104.6L348.8,104.6z"/>
	<polygon class="st0" points="527.8,112.5 539.7,112.5 533.8,81.7 	"/>
	<path class="st0" d="M32.6,38.9v134.5c0,4.4,3.6,7.9,7.9,7.9h597.8c4.4,0,7.9-3.6,7.9-7.9V38.9c0-4.4-3.6-7.9-7.9-7.9H40.5
		C36.1,31,32.6,34.6,32.6,38.9z M87.1,130.2c-1.3,4.2-3.1,7.5-5.5,9.8s-5.1,3.4-8.2,3.4H62.9h-5.1h-4.3V53h3.4h6h22.6v16.4H62.9v18
		h10.6c3.1,0,5.8,1.2,8.2,3.5s4.2,5.6,5.5,9.8s1.9,9.1,1.9,14.7C89.1,121.1,88.4,125.9,87.1,130.2z M131.4,69.4h-23.9v20.9h20.2
		v16.4h-20.2V127h23.9v16.4h-23.9h-6h-3.4V53h3.4h6h23.9V69.4z M172.2,118.2c0,5.5-0.7,10.2-2,14.1s-3.3,6.9-5.8,9s-5.6,3.1-9.2,3.1
		c-3.3,0-6.2-1-8.7-3.1s-4.5-5-6-8.9c-1.5-3.9-2.5-8.6-2.9-14h9.5c0.3,3,1.2,5.3,2.5,6.9s3.1,2.5,5.3,2.5c2.3,0,4.1-1.1,5.4-3.3
		s1.9-5.3,1.9-9.2v-0.1c0-3.4-0.5-6-1.4-7.9c-1-1.8-2.3-2.8-4.1-2.8h-8V88.2h8c1.5,0,2.7-0.8,3.5-2.3c0.8-1.5,1.2-3.7,1.2-6.5v-0.6
		c0-3.3-0.5-5.8-1.6-7.6s-2.6-2.7-4.6-2.7c-1.8,0-3.4,0.9-4.6,2.6s-2.2,4.2-2.7,7.4h-9.5c0.6-5.6,1.6-10.4,3.1-14.4s3.4-7,5.7-9.1
		s5-3.1,7.9-3.1c3.4,0,6.3,0.9,8.8,2.8c2.4,1.8,4.3,4.5,5.5,8.1c1.3,3.5,1.9,7.8,1.9,12.7v0.5c0,4.8-0.6,8.9-1.9,12.4
		c-1.2,3.5-3,6.1-5.2,7.8c2.5,1.1,4.4,3.5,5.8,7.3S172.1,112.2,172.2,118.2L172.2,118.2L172.2,118.2z M227.8,143.4l-12.8-36.7h-5.5
		v36.7H200V53h9.4v37.3h5.6L226.6,53h10.8l-14.5,45.5l16.6,45L227.8,143.4L227.8,143.4z M278.2,111c0,6.6-0.8,12.5-2.3,17.5
		c-1.5,5-3.6,8.9-6.4,11.7c-2.8,2.8-5.9,4.1-9.5,4.1c-3.6,0-6.8-1.4-9.5-4.1s-4.9-6.7-6.4-11.7c-1.5-5-2.3-10.9-2.3-17.5V85.4
		c0-6.6,0.8-12.5,2.3-17.5c1.5-5,3.6-8.9,6.4-11.7c2.8-2.8,5.9-4.1,9.5-4.1s6.8,1.4,9.5,4.1s4.9,6.7,6.4,11.7
		c1.5,5,2.3,10.9,2.3,17.5V111z M324,143.4h-9.4v-36.6h-17.8v36.6h-9.4V53h9.4v37.4h17.8V53h9.4V143.4z M377.2,162.2h-9.1v-18.7
		h-5.7h-21.5v18.7h-9v-18.7V127h0.3h0.8c2,0,3.6-1.7,4.8-5.2c1.1-3.5,1.7-8.3,1.7-14.7V53h5.4h4h13.6h4h5.3v74h2.5h2.9L377.2,162.2
		L377.2,162.2z M418.5,69.4h-23.9v20.9h20.2v16.4h-20.2V127h23.9v16.4h-23.9h-6h-3.4V53h3.4h6h23.9V69.4z M463.7,143.4h-9.4v-36.6
		h-17.8v36.6h-9.4V53h9.4v37.4h17.8V53h9.4V143.4z M484.3,119.7c0.6,2.5,1.6,4.4,2.8,5.7c1.2,1.3,2.7,2,4.5,2c1.4,0,2.6-0.6,3.7-1.7
		s2-2.7,2.8-4.8c0.8-2.1,1.3-4.7,1.6-7.7h9.7c-0.6,6.6-1.8,12.2-3.4,16.9s-3.6,8.2-6.1,10.7c-2.5,2.4-5.2,3.7-8.4,3.7
		c-3.8,0-7-1.3-9.7-3.9c-2.7-2.6-4.7-6.5-6.1-11.5s-2.1-11.1-2.1-18.3V85.8c0-7.1,0.7-13.2,2.1-18.3s3.5-8.9,6.1-11.5
		c2.7-2.7,5.9-4,9.7-4c3.1,0,5.9,1.2,8.4,3.7c2.5,2.5,4.5,6,6.1,10.7c1.6,4.7,2.7,10.3,3.3,16.9h-9.7c-0.4-3-0.9-5.5-1.7-7.7
		c-0.8-2.1-1.7-3.7-2.8-4.8c-1.1-1.1-2.3-1.7-3.6-1.7c-1.8,0-3.2,0.7-4.5,2s-2.2,3.2-2.8,5.7s-1,5.5-1,9.1v24.8
		C483.3,114.2,483.6,117.2,484.3,119.7z M545.7,143.4l-2.8-14.5h-18.2l-2.8,14.5h-10.1l19-90.4h6l19,90.4H545.7z M576.6,143.4h-9.4
		v-74h-13.5V53h36.4v16.4h-13.5L576.6,143.4L576.6,143.4z M621.6,143.4l-2.8-14.5h-18.2l-2.8,14.5h-10.1l19-90.4h6l19,90.4H621.6z"
		/>
	<polygon class="st0" points="603.8,112.5 615.7,112.5 609.7,81.7 	"/>
	<path class="st0" d="M76.7,105.3c-0.8-0.9-1.8-1.4-3-1.4H62.9V127h10.8c1.1,0,2.1-0.5,3-1.4s1.5-2.3,2-4s0.7-3.8,0.7-6
		c0-2.3-0.2-4.4-0.7-6.1C78.2,107.6,77.5,106.2,76.7,105.3z"/>
</g>
</svg>
