<?xml version="1.0" encoding="utf-8"?>
<!-- Generator: Adobe Illustrator 24.3.0, SVG Export Plug-In . SVG Version: 6.00 Build 0)  -->
<svg version="1.1" id="Слой_1" xmlns="http://www.w3.org/2000/svg" xmlns:xlink="http://www.w3.org/1999/xlink" x="0px" y="0px"
	 viewBox="0 0 400 92.6" style="enable-background:new 0 0 400 92.6;" xml:space="preserve">
<style type="text/css">
	.st0{fill:#FFFFFF;}
	.st1{fill:#FF0000;}
</style>
<g>
	<g>
		<path class="st0" d="M2.5,31.5h30.8v7.8H22.9v23.8H12.8V39.3H2.5V31.5L2.5,31.5z"/>
		<path class="st0" d="M37.8,31.5H65v6.8H48v5h15.7v6.4H48V56h17.5v7.2H37.8V31.5z"/>
		<path class="st0" d="M71,63.2V31.5h16.9c3.1,0,5.5,0.2,7.2,0.8c1.7,0.6,3,1.5,4,2.9c1,1.4,1.5,3.1,1.5,5.2c0,1.7-0.4,3.3-1.2,4.5
			c-0.8,1.3-1.8,2.3-3.2,3.1c-0.9,0.5-2.1,1-3.6,1.3c1.2,0.4,2.1,0.8,2.6,1.2c0.4,0.2,0.9,0.8,1.6,1.7c0.7,0.9,1.2,1.5,1.4,2
			l4.9,9.2H91.8l-5.4-9.7c-0.7-1.3-1.3-2.1-1.8-2.5c-0.7-0.5-1.6-0.7-2.5-0.7h-0.9v12.9C81.2,63.2,71,63.2,71,63.2z M81.2,44.4h4.3
			c0.5,0,1.4-0.2,2.7-0.4c0.6-0.2,1.2-0.5,1.7-1c0.4-0.6,0.6-1.1,0.6-1.8c0-1-0.3-1.8-1-2.4c-0.7-0.6-1.9-0.8-3.8-0.8h-4.5
			L81.2,44.4L81.2,44.4z"/>
		<path class="st0" d="M106.4,31.5h13.4l5.2,19.3l5.1-19.3h13.4v31.7h-8.3V39.1l-6.4,24.2h-7.5l-6.4-24.2v24.2h-8.3L106.4,31.5
			L106.4,31.5z"/>
		<path class="st0" d="M148.4,47.4c0-5.2,1.5-9.2,4.5-12.1c3-2.9,7.2-4.3,12.5-4.3c5.5,0,9.6,1.4,12.6,4.2s4.5,6.8,4.5,11.9
			c0,3.7-0.6,6.8-1.9,9.1c-1.3,2.4-3.2,4.2-5.6,5.6c-2.5,1.4-5.5,2-9.1,2c-3.7,0-6.8-0.6-9.2-1.7s-4.4-2.9-5.9-5.4
			C149.2,54.2,148.4,51.1,148.4,47.4z M158.6,47.5c0,3.2,0.6,5.5,1.8,6.9c1.2,1.4,2.9,2.1,5,2.1c2.1,0,3.9-0.7,5.1-2.1
			c1.2-1.4,1.7-3.8,1.7-7.4c0-3-0.6-5.2-1.9-6.5c-1.3-1.4-2.9-2.1-5.1-2.1c-2.1,0-3.7,0.7-4.9,2.1C159.2,41.9,158.6,44.2,158.6,47.5
			z"/>
		<path class="st0" d="M248.1,31.5h28.7v6.4l-18.4,18.6h19.1v6.8h-31.1v-6.6l18.2-18.4h-16.5L248.1,31.5L248.1,31.5z"/>
		<path class="st0" d="M280.8,47.4c0-5.2,1.5-9.2,4.5-12.1s7.2-4.3,12.5-4.3c5.5,0,9.6,1.4,12.6,4.2s4.5,6.8,4.5,11.9
			c0,3.7-0.6,6.8-1.9,9.1s-3.2,4.2-5.6,5.6c-2.5,1.4-5.5,2-9.1,2s-6.8-0.6-9.1-1.7c-2.4-1.2-4.4-2.9-5.9-5.4
			C281.5,54.2,280.8,51.1,280.8,47.4z M290.9,47.5c0,3.2,0.6,5.5,1.8,6.9c1.2,1.4,2.9,2.1,5,2.1s3.9-0.7,5.1-2.1
			c1.2-1.4,1.7-3.8,1.7-7.4c0-3-0.6-5.2-1.9-6.5c-1.3-1.4-2.9-2.1-5.1-2.1c-2.1,0-3.7,0.7-4.9,2.1C291.5,41.9,290.9,44.2,290.9,47.5
			z"/>
		<path class="st0" d="M320.3,31.5h9.5l12.3,17.6V31.5h9.5v31.7h-9.5l-12.2-17.4v17.4h-9.5V31.5L320.3,31.5z"/>
		<path class="st0" d="M356,31.5h30.8v7.8h-10.3v23.8h-10.1V39.3H356L356,31.5L356,31.5z"/>
	</g>
	<rect x="200.7" y="2.2" class="st1" width="11.1" height="61.2"/>
	<rect x="219" y="29.2" class="st1" width="11.1" height="61.2"/>
	<g>
		<path class="st0" d="M389.6,26.3c-4.4,0-7.9-3.6-7.9-7.9s3.6-7.9,7.9-7.9c4.4,0,7.9,3.6,7.9,7.9S393.9,26.3,389.6,26.3z
			 M389.6,11.4c-3.8,0-7,3.1-7,7s3.1,7,7,7c3.8,0,7-3.1,7-7S393.4,11.4,389.6,11.4z"/>
	</g>
	<g>
		<path class="st0" d="M386.9,21.9v-7.2h2.7c0.6,0,1,0,1.2,0.2s0.5,0.4,0.7,0.7c0.2,0.3,0.2,0.7,0.2,1.1c0,0.5-0.1,1-0.4,1.3
			c-0.3,0.3-0.7,0.5-1.3,0.6c0.2,0.1,0.4,0.2,0.5,0.4c0.2,0.3,0.4,0.6,0.6,0.9l1.1,2h-1l-0.8-1.5c-0.3-0.6-0.6-1-0.7-1.2
			c-0.1-0.2-0.3-0.3-0.5-0.4c-0.1,0-0.4-0.1-0.6-0.1h-1v3.2C387.7,21.9,386.9,21.9,386.9,21.9z M387.7,17.9h1.7c0.4,0,0.7,0,0.9-0.1
			c0.2-0.1,0.3-0.2,0.5-0.4c0.1-0.2,0.2-0.4,0.2-0.7c0-0.4-0.1-0.7-0.3-0.9c-0.2-0.2-0.5-0.3-1-0.3h-1.9L387.7,17.9L387.7,17.9z"/>
	</g>
</g>
</svg>
